<svg width="42" height="42" viewBox="0 0 42 42" fill="none" xmlns="http://www.w3.org/2000/svg">
<circle cx="21" cy="21" r="21" fill="url(#paint0_linear_66_141)"/>
<path d="M12 28.2486V13.7031H14.6349V19.8608H21.375V13.7031H24.017V28.2486H21.375V22.0696H14.6349V28.2486H12Z" fill="white"/>
<path d="M26.7692 28.2486V17.3395H29.3402V28.2486H26.7692ZM28.0618 15.7912C27.6546 15.7912 27.3042 15.6563 27.0107 15.3864C26.7171 15.1117 26.5703 14.7827 26.5703 14.3991C26.5703 14.0109 26.7171 13.6818 27.0107 13.4119C27.3042 13.1373 27.6546 13 28.0618 13C28.4737 13 28.8241 13.1373 29.1129 13.4119C29.4065 13.6818 29.5533 14.0109 29.5533 14.3991C29.5533 14.7827 29.4065 15.1117 29.1129 15.3864C28.8241 15.6563 28.4737 15.7912 28.0618 15.7912Z" fill="white"/>
<defs>
<linearGradient id="paint0_linear_66_141" x1="18.5" y1="21" x2="-21.5" y2="-21" gradientUnits="userSpaceOnUse">
<stop stop-color="#33CC99"/>
<stop offset="1" stop-color="#BEEFDE"/>
</linearGradient>
</defs>
</svg>
