<svg width="24" height="24" viewBox="0 0 24 24" fill="none" xmlns="http://www.w3.org/2000/svg">
<path d="M16.7175 3.37501L16.5 3.31501C15.13 2.95112 13.6785 3.04596 12.3675 3.58501V3.58501C12.1425 3.51001 11.9325 3.42751 11.6925 3.36751L11.4525 3.30751C10.0826 2.9489 8.63355 3.04094 7.32 3.57001C6.10681 4.054 5.10662 4.95576 4.5 6.11251C3.94014 7.27799 3.76673 8.59169 4.005 9.86251C4.08 10.5225 4.1175 10.935 3.96 11.085C3.25318 11.7721 2.64263 12.5516 2.145 13.4025C2.08722 13.511 2.057 13.6321 2.057 13.755C2.057 13.8779 2.08722 13.999 2.145 14.1075C2.20067 14.2172 2.28246 14.3115 2.38317 14.3821C2.48388 14.4528 2.60041 14.4975 2.7225 14.5125L4.1325 14.6925C4.28145 15.1501 4.30986 15.6383 4.215 16.11C4.16114 16.3049 4.15413 16.5098 4.19454 16.7079C4.23494 16.906 4.32162 17.0918 4.4475 17.25C4.8825 17.7525 5.7075 18 7.0875 18V20.1675C7.0875 20.3664 7.16652 20.5572 7.30717 20.6978C7.44782 20.8385 7.63859 20.9175 7.8375 20.9175C8.03641 20.9175 8.22718 20.8385 8.36783 20.6978C8.50848 20.5572 8.5875 20.3664 8.5875 20.1675V17.25C8.5875 17.0511 8.50848 16.8603 8.36783 16.7197C8.22718 16.579 8.03641 16.5 7.8375 16.5C7.12077 16.5924 6.39264 16.5336 5.7 16.3275C5.83524 15.4123 5.67774 14.4778 5.25 13.6575C5.19229 13.553 5.11047 13.4638 5.01133 13.3972C4.91219 13.3307 4.7986 13.2888 4.68 13.275L4.035 13.1925C4.30514 12.8365 4.60362 12.5029 4.9275 12.195C5.64 11.5125 5.535 10.5975 5.4375 9.70501C5.23027 8.72908 5.34883 7.71211 5.775 6.81001C6.21368 5.96728 6.94021 5.30994 7.8225 4.95751C8.70002 4.61385 9.65687 4.52544 10.5825 4.70251C10.1516 5.109 9.78938 5.58264 9.51 6.10501C8.95166 7.27094 8.77831 8.58414 9.015 9.85501C9.09 10.515 9.1275 10.9275 8.9625 11.0775C8.26196 11.7683 7.65435 12.5473 7.155 13.395C7.09722 13.5035 7.067 13.6246 7.067 13.7475C7.067 13.8704 7.09722 13.9915 7.155 14.1C7.21067 14.2097 7.29246 14.304 7.39317 14.3746C7.49388 14.4453 7.61041 14.49 7.7325 14.505L9.1425 14.685C9.29178 15.1425 9.32021 15.6308 9.225 16.1025C9.17599 16.3031 9.17704 16.5127 9.22804 16.7128C9.27905 16.9129 9.37845 17.0974 9.5175 17.25C9.945 17.7525 10.7775 18 12.1575 18V20.16C12.1575 20.3589 12.2365 20.5497 12.3772 20.6903C12.5178 20.831 12.7086 20.91 12.9075 20.91C13.1064 20.91 13.2972 20.831 13.4378 20.6903C13.5785 20.5497 13.6575 20.3589 13.6575 20.16V17.25C13.6581 17.1477 13.6378 17.0464 13.5978 16.9522C13.5579 16.8581 13.499 16.7731 13.425 16.7025C13.3529 16.6302 13.2659 16.5746 13.17 16.5396C13.0741 16.5046 12.9717 16.4911 12.87 16.5C12.1527 16.5878 11.425 16.5265 10.7325 16.32C10.8815 15.4241 10.7478 14.504 10.35 13.6875C10.2933 13.5735 10.2084 13.4757 10.1034 13.4036C9.99844 13.3314 9.87681 13.2872 9.75 13.275L9.1125 13.1925C9.37724 12.8366 9.67073 12.503 9.99 12.195C10.74 11.52 10.605 10.5975 10.5075 9.70501C10.3012 8.72726 10.417 7.709 10.8375 6.80251C11.2845 5.96695 12.0123 5.31616 12.8925 4.96501C13.9099 4.56297 15.0288 4.49469 16.0875 4.77001L16.3275 4.83001C17.3946 5.07821 18.3588 5.6504 19.0879 6.46812C19.817 7.28584 20.2753 8.30907 20.4 9.39751C20.5144 11.4018 20.2601 13.41 19.65 15.3225C19.553 15.6657 19.3874 15.9855 19.163 16.2627C18.9387 16.5399 18.6604 16.7686 18.345 16.935C18.169 17.0285 18.0373 17.1881 17.9789 17.3787C17.9205 17.5693 17.9403 17.7752 18.0337 17.9513C18.1272 18.1273 18.2868 18.259 18.4774 18.3174C18.668 18.3757 18.874 18.356 19.05 18.2625C19.5529 18.0079 19.9989 17.654 20.3611 17.2221C20.7233 16.7903 20.9943 16.2895 21.1575 15.75C21.8017 13.6541 22.0559 11.4577 21.9075 9.27001C21.7559 7.87216 21.1758 6.55537 20.2467 5.50004C19.3176 4.44471 18.0849 3.70247 16.7175 3.37501V3.37501Z" fill="white"/>
<path d="M15.555 8.14501C15.3915 8.035 15.1912 7.99378 14.9975 8.03027C14.8038 8.06677 14.6323 8.17803 14.52 8.34001C14.4061 8.50229 14.3611 8.70305 14.3949 8.8984C14.4286 9.09376 14.5383 9.26781 14.7 9.38251C14.994 9.58991 15.1936 9.90552 15.255 10.26C15.2391 10.4944 15.1734 10.7227 15.0621 10.9297C14.9509 11.1366 14.7967 11.3174 14.61 11.46C14.4703 11.6005 14.3919 11.7906 14.3919 11.9888C14.3919 12.1869 14.4703 12.377 14.61 12.5175C14.6797 12.5906 14.7635 12.6489 14.8563 12.6889C14.9491 12.7288 15.049 12.7496 15.15 12.75C15.3431 12.7492 15.5285 12.674 15.6675 12.54C16.0218 12.2491 16.3048 11.8808 16.4946 11.4634C16.6844 11.0461 16.7761 10.5908 16.7625 10.1325C16.7123 9.73495 16.5788 9.35246 16.3707 9.01C16.1626 8.66753 15.8847 8.37279 15.555 8.14501V8.14501Z" fill="white"/>
</svg>
