<svg width="24" height="24" viewBox="0 0 24 24" fill="none" xmlns="http://www.w3.org/2000/svg">
<path d="M17.79 4.61247C17.7203 4.54218 17.6373 4.48638 17.5459 4.44831C17.4545 4.41023 17.3565 4.39062 17.2575 4.39062C17.1585 4.39062 17.0605 4.41023 16.9691 4.44831C16.8777 4.48638 16.7947 4.54218 16.725 4.61247L5.6025 15.75C5.53852 15.8175 5.48765 15.8963 5.4525 15.9825V16.05C5.446 16.0796 5.446 16.1103 5.4525 16.14L4.5 20.76C4.47588 20.8805 4.48173 21.005 4.51704 21.1227C4.55235 21.2404 4.61604 21.3477 4.7025 21.435C4.77258 21.5045 4.8557 21.5595 4.94707 21.5968C5.03845 21.6341 5.1363 21.653 5.235 21.6525C5.28225 21.6595 5.33026 21.6595 5.3775 21.6525L10.005 20.7525H10.0725C10.1112 20.7407 10.1489 20.7257 10.185 20.7075C10.2416 20.6822 10.2946 20.6494 10.3425 20.61L10.395 20.5725L21.5175 9.40497C21.5884 9.33551 21.6447 9.25268 21.6834 9.16127C21.722 9.06987 21.7421 8.9717 21.7425 8.87247C21.7421 8.77324 21.722 8.67508 21.6834 8.58367C21.6447 8.49227 21.5884 8.40943 21.5175 8.33997L17.79 4.61247ZM9.8625 18.9375L9.06 18.135L17.25 9.97497L18 10.7775L9.8625 18.9375ZM7.995 17.0775L7.1925 16.2675L15.3525 8.10747L16.1625 8.91747L7.995 17.0775ZM6.6 17.8275L7.5 18.6675L8.3625 19.5375L6.21 19.9575L6.6 17.8275ZM19.08 9.74997L16.41 7.04997L17.25 6.20247L19.92 8.87247L19.08 9.74997Z" fill="white"/>
<path d="M4.0425 7.82248L3.675 9.96748C3.64823 10.1081 3.66225 10.2534 3.71541 10.3863C3.76857 10.5192 3.85864 10.6341 3.975 10.7175C4.10369 10.8106 4.25863 10.8605 4.4175 10.86C4.53836 10.8604 4.65724 10.8294 4.7625 10.77L6.69 9.74998L8.6175 10.7625C8.73608 10.8205 8.86787 10.8462 8.99956 10.837C9.13125 10.8278 9.25817 10.784 9.3675 10.71C9.48386 10.6266 9.57394 10.5117 9.6271 10.3788C9.68026 10.2459 9.69428 10.1006 9.6675 9.95998L9.3 7.81498L10.8525 6.31498C10.955 6.22194 11.0298 6.10233 11.0686 5.9694C11.1073 5.83647 11.1085 5.6954 11.072 5.56184C11.0355 5.42827 10.9628 5.30741 10.8618 5.21266C10.7608 5.1179 10.6356 5.05294 10.5 5.02498L8.325 4.70998L7.3575 2.75998C7.29694 2.63113 7.20094 2.52219 7.08075 2.44588C6.96056 2.36956 6.82113 2.32904 6.67875 2.32904C6.53638 2.32904 6.39695 2.36956 6.27675 2.44588C6.15656 2.52219 6.06057 2.63113 6 2.75998L5.055 4.70998L2.9025 5.02498C2.76299 5.04397 2.63164 5.10185 2.52348 5.19199C2.41532 5.28214 2.33472 5.40091 2.2909 5.53471C2.24708 5.66852 2.24181 5.81196 2.2757 5.94862C2.30958 6.08528 2.38125 6.20964 2.4825 6.30748L4.0425 7.82248ZM5.6625 6.14248C5.78266 6.12443 5.89664 6.07746 5.99463 6.00561C6.09261 5.93375 6.17167 5.83916 6.225 5.72998L6.69 4.79248L7.155 5.72998C7.20833 5.83916 7.28739 5.93375 7.38538 6.00561C7.48336 6.07746 7.59734 6.12443 7.7175 6.14248L8.7525 6.29248L8.0025 7.04248C7.91703 7.12751 7.85331 7.2319 7.81675 7.34679C7.7802 7.46168 7.77188 7.58369 7.7925 7.70248L7.965 8.73748L7.035 8.24998C6.92974 8.1906 6.81086 8.15959 6.69 8.15998C6.5669 8.1606 6.44584 8.19151 6.3375 8.24998L5.4075 8.73748L5.5875 7.70248C5.60718 7.58309 5.59768 7.4607 5.5598 7.34577C5.52193 7.23084 5.45681 7.12679 5.37 7.04248L4.62 6.29248L5.6625 6.14248Z" fill="white"/>
</svg>
