<svg width="24" height="24" viewBox="0 0 24 24" fill="none" xmlns="http://www.w3.org/2000/svg">
<path d="M3.81 16.29C3.81 16.41 3.81 16.53 3.81 16.65C3.81856 17.1081 3.95149 17.5552 4.19457 17.9436C4.43764 18.332 4.78172 18.647 5.19 18.855C5.60547 19.0306 6.06832 19.0597 6.5025 18.9375C6.71214 19.5671 7.11482 20.1147 7.65336 20.5024C8.19189 20.8901 8.8389 21.0984 9.5025 21.0975H9.75C10.2361 21.0201 10.676 20.7644 10.9838 20.3803C11.2916 19.9962 11.4454 19.5113 11.415 19.02V5.35497C11.433 4.90544 11.3226 4.46008 11.0968 4.07095C10.8711 3.68181 10.5392 3.36498 10.14 3.15747C9.81208 3.00245 9.4558 2.91647 9.09326 2.90486C8.73073 2.89325 8.36968 2.95626 8.0325 3.08997C7.33205 3.40009 6.74878 3.92556 6.3675 4.58997C5.1225 4.58997 4.1625 5.72997 4.1625 7.16247C4.1625 7.22997 4.1625 7.30497 4.1625 7.37247C3.69296 7.58263 3.29822 7.93027 3.0304 8.36949C2.76259 8.8087 2.63431 9.31882 2.6625 9.83247C2.66371 10.2042 2.73232 10.5727 2.865 10.92C2.4395 11.4255 2.15788 12.0363 2.04968 12.6882C1.94147 13.3401 2.01067 14.009 2.25 14.625C2.37319 14.9993 2.57661 15.3422 2.84605 15.6298C3.1155 15.9174 3.44447 16.1427 3.81 16.29ZM4.2375 11.79C4.32854 11.7295 4.40524 11.6498 4.46225 11.5565C4.51925 11.4632 4.55518 11.3586 4.5675 11.25C4.58546 11.1479 4.58206 11.0432 4.55754 10.9425C4.53301 10.8419 4.48788 10.7473 4.425 10.665C4.2587 10.428 4.17203 10.1444 4.1775 9.85497C4.1775 9.20997 4.53 8.73747 4.9275 8.77497C5.06248 8.80843 5.20409 8.80371 5.33653 8.76132C5.46898 8.71894 5.58703 8.64057 5.6775 8.53497C5.76371 8.43269 5.82099 8.30921 5.8434 8.17734C5.86582 8.04547 5.85256 7.91 5.805 7.78497C5.72975 7.60179 5.69151 7.40551 5.6925 7.20747C5.6925 6.50247 6.1275 5.99997 6.51 6.16497C6.60149 6.20314 6.69963 6.22279 6.79875 6.22279C6.89788 6.22279 6.99602 6.20314 7.0875 6.16497C7.18103 6.12641 7.26579 6.06932 7.33668 5.99714C7.40757 5.92496 7.46313 5.83918 7.5 5.74497C7.71711 5.2202 8.10224 4.78231 8.595 4.49997C8.74432 4.43601 8.90507 4.40304 9.0675 4.40304C9.22994 4.40304 9.39069 4.43601 9.54 4.49997C9.66715 4.59458 9.76823 4.71988 9.83381 4.86415C9.89939 5.00843 9.92732 5.16697 9.915 5.32497V6.15747C9.39593 6.21814 8.89426 6.38211 8.43956 6.63973C7.98486 6.89735 7.58634 7.2434 7.2675 7.65747C7.20841 7.73627 7.16541 7.82593 7.14097 7.92134C7.11652 8.01675 7.11111 8.11604 7.12504 8.21354C7.15317 8.41045 7.25837 8.58813 7.4175 8.70747C7.54638 8.80752 7.70436 8.86282 7.8675 8.86497C7.98394 8.86497 8.09877 8.83787 8.20291 8.78579C8.30705 8.73372 8.39764 8.65812 8.4675 8.56497C8.82549 8.10828 9.34224 7.80305 9.915 7.70997V11.625C9.22311 11.4144 8.48195 11.4312 7.80029 11.6728C7.11863 11.9145 6.53236 12.3682 6.1275 12.9675C6.02478 13.1367 5.99315 13.3397 6.03952 13.5322C6.08588 13.7247 6.20648 13.8911 6.375 13.995C6.54426 14.0977 6.74727 14.1293 6.93975 14.083C7.13224 14.0366 7.29858 13.916 7.4025 13.7475C8.0175 12.75 9.3 12.9975 9.915 13.1775V19.0125C9.915 19.3725 9.72 19.59 9.6375 19.59C9.18675 19.598 8.74867 19.4406 8.40599 19.1477C8.06331 18.8548 7.83974 18.4465 7.7775 18C8.25654 17.529 8.62982 16.9614 8.8725 16.335C8.93118 16.144 8.9116 15.9376 8.81807 15.7611C8.72453 15.5845 8.56471 15.4524 8.37375 15.3937C8.1828 15.335 7.97635 15.3546 7.79983 15.4482C7.62331 15.5417 7.49118 15.7015 7.4325 15.8925C7.20121 16.3924 6.8693 16.8392 6.4575 17.205V17.2575L6.375 17.25C6.317 17.3471 6.22606 17.4203 6.1187 17.4561C6.01134 17.4918 5.89471 17.4879 5.79 17.445C5.6418 17.3428 5.52067 17.2061 5.43704 17.0467C5.35342 16.8873 5.30982 16.71 5.31 16.53C5.29501 16.3221 5.32048 16.1132 5.385 15.915C5.4143 15.8032 5.41736 15.6861 5.39394 15.5729C5.37053 15.4597 5.32126 15.3535 5.25 15.2625C5.18026 15.1645 5.08797 15.0848 4.98094 15.0299C4.87391 14.9751 4.75526 14.9468 4.635 14.9475C4.40695 14.9291 4.19016 14.8407 4.01428 14.6943C3.83841 14.548 3.71205 14.3509 3.6525 14.13C3.48386 13.7243 3.44968 13.2752 3.55496 12.8487C3.66025 12.4222 3.89946 12.0406 4.2375 11.76V11.79Z" fill="white"/>
<path d="M21.3225 9.8625C21.3507 9.34885 21.2224 8.83873 20.9546 8.39952C20.6868 7.9603 20.292 7.61266 19.8225 7.4025C19.8225 7.335 19.8225 7.26 19.8225 7.1925C19.8681 6.55968 19.662 5.93443 19.2491 5.45271C18.8362 4.97099 18.2499 4.67173 17.6175 4.62C17.2362 3.95559 16.653 3.43012 15.9525 3.12C15.6153 2.98629 15.2543 2.92328 14.8917 2.93489C14.5292 2.9465 14.1729 3.03248 13.845 3.1875C13.4458 3.39501 13.114 3.71184 12.8882 4.10098C12.6624 4.49011 12.552 4.93547 12.57 5.385V19.0125C12.5401 19.506 12.6959 19.9929 13.0068 20.3773C13.3177 20.7618 13.7612 21.016 14.25 21.09H14.5275C15.1847 21.0831 15.8233 20.8712 16.3544 20.484C16.8854 20.0968 17.2824 19.5536 17.49 18.93C17.9242 19.0522 18.387 19.0231 18.8025 18.8475C19.2108 18.6396 19.5549 18.3246 19.7979 17.9362C20.041 17.5478 20.1739 17.1006 20.1825 16.6425C20.1825 16.5225 20.1825 16.4025 20.1825 16.2825C20.5479 16.1356 20.8771 15.9114 21.1477 15.6253C21.4183 15.3392 21.6237 14.998 21.75 14.625C21.9836 14.0131 22.0497 13.35 21.9416 12.704C21.8335 12.058 21.5551 11.4525 21.135 10.95C21.2626 10.6018 21.3261 10.2333 21.3225 9.8625ZM20.3175 14.13C20.2571 14.3532 20.1285 14.5519 19.9497 14.6985C19.7708 14.845 19.5507 14.9321 19.32 14.9475C19.201 14.9481 19.0839 14.9769 18.9782 15.0317C18.8726 15.0865 18.7815 15.1656 18.7125 15.2625C18.6429 15.3602 18.5977 15.4731 18.5807 15.5919C18.5637 15.7106 18.5755 15.8317 18.615 15.945C18.6795 16.1432 18.705 16.3521 18.69 16.56C18.6902 16.74 18.6466 16.9174 18.563 17.0768C18.4793 17.2362 18.3582 17.3728 18.21 17.475C18.1018 17.5155 17.9826 17.5149 17.8748 17.4735C17.767 17.432 17.6782 17.3525 17.625 17.25H17.5725C17.5725 17.25 17.5725 17.25 17.5725 17.2125C17.1629 16.8447 16.8313 16.3984 16.5975 15.9C16.5388 15.709 16.4067 15.5492 16.2302 15.4557C16.0537 15.3622 15.8472 15.3426 15.6563 15.4013C15.4653 15.4599 15.3055 15.5921 15.2119 15.7686C15.1184 15.9451 15.0988 16.1515 15.1575 16.3425C15.3923 16.9636 15.7552 17.5283 16.2225 18C16.1619 18.4479 15.9391 18.8579 15.5962 19.1524C15.2534 19.4469 14.8144 19.6053 14.3625 19.5975C14.28 19.5975 14.085 19.38 14.085 19.02V13.1775C14.7 12.99 15.9825 12.75 16.5975 13.7475C16.7014 13.916 16.8678 14.0366 17.0603 14.083C17.2527 14.1294 17.4557 14.0977 17.625 13.995C17.7935 13.8911 17.9141 13.7247 17.9605 13.5323C18.0069 13.3398 17.9752 13.1368 17.8725 12.9675C17.4699 12.3758 16.8899 11.927 16.2161 11.6858C15.5422 11.4445 14.8092 11.4232 14.1225 11.625V7.68C14.6958 7.77166 15.213 8.07718 15.57 8.535C15.6399 8.62815 15.7305 8.70375 15.8346 8.75582C15.9387 8.80789 16.0536 8.835 16.17 8.835C16.3331 8.83285 16.4911 8.77755 16.62 8.6775C16.7791 8.55816 16.8843 8.38048 16.9125 8.18357C16.9406 7.98666 16.8894 7.78663 16.77 7.6275C16.4512 7.21343 16.0526 6.86738 15.598 6.60976C15.1433 6.35214 14.6416 6.18817 14.1225 6.1275V5.355C14.1102 5.197 14.1381 5.03846 14.2037 4.89418C14.2693 4.74991 14.3704 4.62461 14.4975 4.53C14.656 4.45761 14.8262 4.41442 15 4.4025C15.1314 4.40043 15.2617 4.42598 15.3825 4.4775C15.8886 4.76024 16.2829 5.20746 16.5 5.745C16.5377 5.83783 16.5937 5.92215 16.6645 5.993C16.7354 6.06385 16.8197 6.11979 16.9125 6.1575C17.004 6.19567 17.1021 6.21532 17.2013 6.21532C17.3004 6.21532 17.3985 6.19567 17.49 6.1575C17.8725 5.9925 18.3075 6.495 18.3075 7.2C18.3085 7.39804 18.2703 7.59432 18.195 7.7775C18.1514 7.90513 18.143 8.04215 18.1707 8.17414C18.1984 8.30613 18.2612 8.4282 18.3525 8.5275C18.443 8.6331 18.561 8.71147 18.6935 8.75385C18.8259 8.79623 18.9675 8.80096 19.1025 8.7675C19.4175 8.7675 19.77 9.2175 19.77 9.855C19.7755 10.1444 19.6888 10.4281 19.5225 10.665C19.4596 10.7474 19.4145 10.8419 19.39 10.9426C19.3654 11.0433 19.3621 11.1479 19.38 11.25C19.3974 11.352 19.4357 11.4493 19.4925 11.5358C19.5492 11.6222 19.6233 11.696 19.71 11.7525C20.0535 12.0307 20.2981 12.4123 20.4076 12.8406C20.517 13.2689 20.4854 13.7211 20.3175 14.13Z" fill="white"/>
</svg>
