<svg width="24" height="24" viewBox="0 0 24 24" fill="none" xmlns="http://www.w3.org/2000/svg">
<path d="M17.4675 6.1275C17.3773 6.08907 17.2805 6.06868 17.1825 6.0675H10.8C10.6011 6.0675 10.4103 6.14652 10.2697 6.28717C10.129 6.42782 10.05 6.61858 10.05 6.8175C10.05 7.01641 10.129 7.20717 10.2697 7.34783C10.4103 7.48848 10.6011 7.5675 10.8 7.5675H15.375L6.28499 16.65C6.21469 16.7197 6.1589 16.8027 6.12082 16.8941C6.08274 16.9855 6.06314 17.0835 6.06314 17.1825C6.06314 17.2815 6.08274 17.3795 6.12082 17.4709C6.1589 17.5623 6.21469 17.6453 6.28499 17.715C6.35507 17.7845 6.43818 17.8395 6.52956 17.8768C6.62094 17.9141 6.71878 17.9331 6.81749 17.9325C6.91619 17.9331 7.01404 17.9141 7.10542 17.8768C7.1968 17.8395 7.27991 17.7845 7.34999 17.715L16.4325 8.625V13.2C16.4325 13.3989 16.5115 13.5897 16.6522 13.7303C16.7928 13.871 16.9836 13.95 17.1825 13.95C17.3814 13.95 17.5722 13.871 17.7128 13.7303C17.8535 13.5897 17.9325 13.3989 17.9325 13.2V6.8175C17.9313 6.71949 17.9109 6.62266 17.8725 6.5325C17.7964 6.34924 17.6508 6.2036 17.4675 6.1275Z" fill="white"/>
</svg>
